<?xml version="1.0" standalone="no"?>
<!DOCTYPE svg PUBLIC "-//W3C//DTD SVG 20010904//EN"
 "http://www.w3.org/TR/2001/REC-SVG-20010904/DTD/svg10.dtd">
<svg version="1.0" xmlns="http://www.w3.org/2000/svg"
 width="971.000000pt" height="971.000000pt" viewBox="0 0 971.000000 971.000000"
 preserveAspectRatio="xMidYMid meet">
<metadata>
Created by potrace 1.14, written by Peter Selinger 2001-2017
</metadata>
<g transform="translate(0.000000,971.000000) scale(0.100000,-0.100000)"
fill="#000000" stroke="none">
<path d="M4674 9118 c-4 -6 -3 -8 4 -4 6 3 13 2 16 -3 7 -11 -13 -9 -31 2 -7
5 -13 4 -13 -2 0 -5 -11 -8 -25 -5 -14 2 -25 1 -25 -4 0 -4 -12 -7 -27 -6 -16
1 -34 -4 -42 -10 -11 -8 -13 -8 -7 2 4 6 3 12 -1 12 -5 0 -15 -6 -22 -12 -11
-10 -13 -10 -7 0 8 14 -10 17 -19 2 -3 -5 -16 -10 -29 -10 -12 0 -28 -6 -35
-12 -11 -10 -13 -10 -7 0 4 7 1 12 -8 12 -8 0 -17 -6 -19 -12 -4 -10 -6 -10
-6 0 -1 6 -6 12 -12 12 -5 0 -7 -4 -4 -10 4 -6 -7 -10 -24 -10 -18 0 -31 -5
-31 -12 0 -9 -4 -8 -10 2 -8 12 -10 12 -10 1 0 -8 -7 -11 -20 -8 -11 3 -20 1
-20 -4 0 -6 -8 -6 -19 0 -14 8 -22 7 -31 -4 -7 -8 -15 -14 -18 -13 -22 2 -32
-3 -26 -14 4 -7 -3 -4 -16 7 -13 11 -21 16 -18 10 3 -5 0 -15 -7 -22 -11 -10
-15 -10 -18 0 -4 9 -6 9 -6 0 -1 -8 -10 -9 -30 -3 -29 8 -60 -8 -44 -23 3 -4
1 -7 -5 -7 -6 0 -16 8 -21 18 -10 16 -10 16 -11 0 0 -9 -5 -20 -12 -24 -7 -4
-8 -3 -4 4 5 8 2 10 -8 6 -9 -3 -14 -9 -11 -13 6 -10 -33 -7 -42 4 -5 4 -2 5
6 0 10 -5 12 -4 7 4 -4 6 -12 9 -17 5 -5 -3 -7 -9 -4 -14 3 -5 1 -11 -5 -15
-5 -3 -10 0 -10 7 0 10 -3 9 -10 -2 -5 -8 -12 -11 -16 -7 -4 4 -13 -1 -21 -11
-8 -9 -12 -12 -10 -7 3 6 -5 10 -18 10 -13 0 -22 -2 -19 -4 5 -5 -28 -30 -41
-31 -5 0 -3 5 5 10 10 7 11 10 2 10 -7 0 -15 -7 -18 -15 -4 -8 -10 -15 -16
-15 -5 0 -6 6 -2 13 5 8 3 8 -9 -2 -9 -7 -15 -17 -12 -20 2 -4 -2 -8 -10 -8
-8 0 -12 4 -9 9 3 4 0 8 -5 8 -6 0 -11 -8 -12 -17 0 -12 -2 -13 -6 -5 -4 10
-9 9 -20 -5 -8 -10 -11 -12 -7 -4 5 11 3 13 -10 8 -10 -4 -20 -7 -22 -7 -3 0
-2 -5 2 -11 4 -8 1 -8 -14 0 -18 9 -23 8 -31 -8 -7 -13 -20 -18 -40 -17 -16 1
-29 0 -29 -3 2 -19 -4 -24 -12 -11 -7 11 -10 11 -10 2 0 -7 -4 -10 -10 -7 -5
3 -10 1 -10 -4 0 -6 5 -11 12 -11 6 0 8 -3 5 -6 -4 -4 -13 -1 -22 6 -10 8 -15
9 -15 1 0 -6 -9 -11 -20 -11 -11 0 -20 -5 -20 -12 0 -6 -3 -8 -7 -5 -3 4 -12
-1 -20 -11 -10 -11 -12 -12 -8 -2 4 10 2 9 -8 -2 -8 -10 -17 -15 -20 -11 -4 3
-13 0 -21 -6 -8 -7 -21 -9 -28 -5 -10 6 -10 4 0 -9 12 -14 11 -16 -7 -12 -13
2 -19 0 -15 -6 3 -6 -3 -13 -15 -16 -12 -3 -21 -11 -21 -18 0 -7 -7 -16 -16
-19 -15 -6 -15 -4 -3 11 7 10 0 6 -17 -9 -22 -20 -33 -25 -41 -17 -8 8 -13 7
-18 -2 -6 -8 -4 -10 5 -4 8 5 11 3 8 -6 -3 -8 -11 -14 -19 -14 -17 0 -47 -27
-42 -37 2 -4 -5 -5 -16 -3 -14 2 -18 -1 -14 -11 5 -12 -13 -19 -40 -15 -4 0
-6 -2 -6 -6 3 -20 -2 -34 -11 -28 -5 3 -17 -3 -27 -14 -13 -15 -20 -18 -30 -9
-11 8 -12 7 -7 -6 5 -12 2 -15 -12 -9 -11 4 -15 3 -11 -4 5 -7 -5 -14 -24 -18
-21 -5 -29 -11 -25 -21 3 -8 2 -13 -3 -9 -13 7 -42 -5 -35 -16 3 -5 -2 -6 -10
-3 -10 4 -16 1 -16 -7 0 -7 -3 -9 -7 -6 -3 4 -12 -1 -19 -11 -8 -10 -13 -12
-14 -4 0 6 -4 12 -9 12 -5 0 -8 -12 -5 -27 3 -19 2 -24 -5 -14 -7 11 -13 9
-32 -10 -13 -13 -23 -28 -21 -32 1 -5 -2 -5 -8 -2 -6 4 -22 4 -35 1 -18 -5
-23 -11 -18 -24 6 -14 4 -15 -9 -4 -13 10 -17 10 -21 -1 -3 -8 -16 -13 -29
-12 -27 3 -60 -23 -51 -39 4 -6 -2 -4 -12 4 -10 8 -16 10 -12 3 4 -6 3 -14 -3
-18 -5 -3 -10 -1 -10 5 0 6 -5 8 -11 5 -6 -4 -8 -10 -5 -13 9 -8 -25 -42 -41
-42 -8 0 -11 -5 -7 -12 5 -8 2 -9 -9 -5 -10 4 -16 2 -14 -6 1 -7 -3 -11 -10
-10 -15 3 -64 -62 -55 -72 4 -5 1 -5 -6 -1 -11 6 -11 11 0 24 12 15 11 16 -4
4 -10 -8 -20 -22 -23 -33 -4 -11 -11 -17 -16 -14 -5 4 -9 0 -9 -7 0 -9 -3 -9
-10 2 -8 13 -10 12 -11 -5 -1 -11 -1 -23 -1 -26 1 -3 -6 -6 -14 -6 -7 0 -14 5
-14 10 0 6 -3 7 -6 4 -4 -4 -1 -13 6 -22 11 -13 10 -14 -2 -10 -14 6 -46 -21
-40 -34 1 -3 -4 -6 -10 -6 -7 -1 -12 -7 -10 -14 1 -7 -2 -10 -7 -7 -5 4 -12 2
-16 -4 -4 -6 -12 -7 -18 -3 -7 4 -7 0 1 -10 12 -14 11 -16 -7 -12 -13 2 -18
-1 -15 -10 3 -8 -4 -16 -17 -20 -12 -4 -17 -10 -12 -14 10 -6 -38 -61 -54 -62
-4 0 -7 -6 -7 -14 1 -7 -4 -11 -11 -9 -7 3 -16 0 -21 -7 -4 -8 -3 -10 4 -5 8
5 10 2 6 -9 -5 -12 -9 -13 -20 -4 -12 10 -13 9 -8 -5 4 -11 1 -16 -10 -16 -9
0 -16 -5 -16 -11 0 -5 6 -7 12 -3 7 4 -1 -6 -18 -22 -17 -16 -34 -37 -37 -46
-4 -10 -11 -18 -17 -18 -6 0 -8 -4 -5 -10 3 -6 -1 -7 -9 -4 -12 4 -16 0 -16
-16 0 -11 -4 -19 -9 -16 -5 4 -7 -3 -4 -14 3 -12 0 -20 -6 -20 -7 0 -9 5 -5
12 4 6 3 8 -4 4 -6 -3 -9 -15 -7 -26 3 -13 -2 -20 -12 -20 -13 0 -13 -3 -3
-16 11 -12 11 -15 -1 -12 -8 2 -13 -2 -12 -9 2 -7 -6 -17 -17 -23 -11 -6 -18
-15 -15 -21 4 -5 -2 -9 -12 -9 -14 0 -15 -2 -4 -9 10 -7 9 -11 -8 -23 -11 -8
-18 -18 -14 -21 3 -4 1 -7 -6 -7 -7 0 -11 -6 -8 -14 4 -11 0 -13 -15 -11 -11
3 -18 2 -15 -2 11 -10 -13 -43 -31 -44 -10 0 -12 -3 -5 -6 10 -3 10 -7 0 -18
-7 -7 -15 -11 -19 -9 -3 2 -5 -9 -4 -25 1 -16 0 -29 -3 -29 -4 0 -15 0 -26 -1
-15 -1 -17 -3 -6 -10 11 -7 10 -11 -5 -20 -11 -6 -15 -11 -10 -11 5 0 3 -7 -4
-15 -7 -8 -9 -15 -6 -15 4 0 0 -7 -8 -16 -9 -8 -14 -20 -11 -25 4 -5 2 -9 -4
-9 -6 0 -8 -7 -5 -15 4 -9 0 -15 -10 -15 -9 0 -15 -6 -13 -12 1 -7 -4 -12 -10
-11 -7 2 -12 0 -11 -5 3 -14 -21 -62 -31 -62 -6 0 -7 -7 -4 -17 5 -12 3 -14
-7 -8 -10 6 -12 3 -8 -13 4 -12 3 -20 -2 -17 -11 7 -47 -28 -43 -42 3 -7 -2
-16 -11 -19 -8 -3 -12 -12 -9 -20 3 -9 -1 -14 -12 -14 -15 0 -16 -2 -4 -17 11
-13 11 -15 1 -9 -9 5 -15 1 -19 -13 -3 -12 -9 -21 -14 -21 -5 0 -9 -5 -9 -11
0 -5 5 -7 12 -3 7 4 8 3 4 -4 -4 -7 -14 -12 -22 -12 -8 0 -15 -7 -15 -15 -1
-8 -2 -20 -3 -26 0 -7 -10 -15 -21 -20 -11 -4 -14 -8 -6 -8 11 -1 11 -4 1 -16
-6 -8 -9 -19 -6 -24 4 -5 -2 -14 -11 -20 -15 -9 -16 -12 -4 -20 11 -7 9 -10
-8 -16 -19 -6 -20 -9 -9 -23 10 -12 10 -14 0 -8 -7 4 -12 1 -12 -8 0 -9 -5
-16 -11 -16 -8 0 -8 -5 1 -15 10 -12 10 -15 -3 -15 -9 0 -19 -5 -23 -12 -5 -7
-2 -8 7 -3 11 6 12 5 2 -6 -7 -7 -13 -23 -13 -34 0 -12 -9 -31 -20 -43 -13
-13 -16 -22 -8 -22 9 0 9 -3 0 -12 -15 -15 -16 -31 0 -22 7 5 8 3 2 -7 -11
-18 -12 -39 -2 -61 5 -10 2 -22 -8 -32 -8 -9 -12 -16 -8 -16 3 0 0 -8 -7 -17
-8 -9 -9 -14 -2 -10 16 10 10 -20 -9 -42 -12 -15 -13 -22 -5 -31 7 -7 8 -10 2
-8 -5 3 -15 0 -22 -7 -10 -11 -10 -15 0 -18 9 -4 9 -6 0 -6 -7 -1 -10 -8 -7
-16 4 -8 1 -15 -7 -15 -7 0 -9 -3 -6 -7 4 -3 2 -12 -4 -20 -9 -10 -8 -13 1
-13 10 0 10 -3 0 -15 -6 -8 -9 -19 -5 -25 3 -5 1 -10 -5 -10 -8 0 -8 -6 0 -20
9 -16 8 -19 -6 -13 -13 5 -15 3 -9 -8 12 -19 14 -49 2 -49 -5 0 -7 -6 -4 -14
3 -8 1 -17 -6 -20 -9 -3 -9 -5 0 -5 7 -1 10 -8 7 -16 -4 -8 -9 -13 -13 -10 -4
2 -7 -14 -6 -36 1 -22 -4 -44 -12 -50 -9 -8 -10 -16 -3 -30 8 -13 6 -20 -6
-27 -15 -8 -15 -10 1 -16 14 -5 15 -9 5 -21 -6 -8 -8 -20 -4 -26 4 -8 3 -9 -4
-5 -15 9 -15 -9 0 -37 10 -19 9 -20 -3 -10 -12 10 -15 8 -15 -8 0 -10 3 -19 6
-19 3 0 6 -9 6 -19 0 -14 -4 -17 -11 -11 -13 10 -14 -17 -3 -36 4 -5 3 -16 -2
-24 -5 -8 -5 -21 1 -32 8 -14 6 -16 -8 -11 -16 6 -16 5 -5 -10 8 -9 11 -21 8
-26 -4 -5 -1 -13 4 -16 8 -5 6 -12 -4 -24 -10 -11 -14 -34 -13 -69 1 -29 -2
-52 -8 -52 -5 0 -3 -5 5 -10 8 -5 11 -10 5 -10 -5 0 -10 -20 -10 -44 0 -24 3
-42 7 -39 5 2 8 -1 8 -6 0 -6 -4 -11 -8 -11 -5 0 -9 -7 -9 -15 0 -8 4 -12 8
-9 4 2 10 0 14 -6 3 -5 0 -10 -8 -10 -11 0 -13 -9 -7 -40 5 -27 4 -40 -4 -40
-6 0 -4 -5 4 -10 8 -5 11 -10 5 -10 -5 0 -10 -20 -10 -44 0 -24 3 -42 8 -39 4
2 7 -1 7 -6 0 -6 -4 -11 -8 -11 -5 0 -9 -7 -9 -15 0 -8 4 -12 8 -9 4 2 10 0
14 -6 3 -5 0 -10 -8 -10 -11 0 -13 -9 -7 -40 5 -25 4 -40 -3 -40 -6 0 -6 -5 1
-12 6 -7 12 -17 14 -23 1 -5 6 -9 9 -8 3 1 6 -4 6 -12 0 -8 -4 -12 -8 -9 -4 2
-10 0 -14 -6 -3 -5 -1 -10 5 -10 6 0 8 -4 5 -10 -3 -5 2 -10 12 -10 12 0 14
-3 6 -8 -8 -5 -9 -13 -3 -22 12 -18 13 -33 2 -26 -4 2 -8 -4 -8 -14 0 -11 2
-17 5 -15 10 10 27 -40 18 -52 -6 -9 -5 -13 4 -13 9 0 10 -3 4 -8 -13 -9 -18
-35 -5 -27 9 5 14 -15 13 -52 -1 -7 3 -10 8 -7 6 3 9 -9 7 -28 -1 -19 1 -39 5
-45 4 -6 1 -14 -5 -16 -8 -4 -7 -6 4 -6 16 -1 19 -16 5 -38 -4 -6 -2 -15 4
-19 8 -5 9 -3 4 6 -5 8 -4 11 3 6 6 -4 9 -13 5 -21 -3 -9 1 -15 8 -15 11 0 11
-3 -1 -10 -13 -9 -13 -10 0 -10 13 0 13 -1 0 -10 -10 -6 -11 -10 -2 -10 6 0
12 -5 12 -11 0 -5 -4 -7 -10 -4 -6 3 -7 -1 -4 -9 3 -9 10 -14 14 -11 5 3 6 -5
2 -17 -4 -16 -2 -19 9 -13 12 8 12 6 0 -8 -11 -14 -11 -17 0 -17 12 0 12 -2 0
-9 -10 -6 -10 -10 -1 -13 7 -2 13 -20 13 -41 1 -20 4 -37 8 -37 4 0 9 -9 12
-20 3 -13 1 -18 -6 -13 -7 4 -8 0 -4 -11 4 -10 7 -20 7 -22 0 -3 4 -3 9 0 5 4
7 -4 3 -16 -3 -13 -1 -19 5 -15 7 5 9 -1 5 -15 -4 -15 -2 -19 7 -13 10 6 11 3
2 -14 -8 -14 -8 -21 -1 -21 5 0 10 -9 10 -19 0 -11 6 -22 13 -24 10 -4 10 -6
0 -6 -7 -1 -13 -6 -13 -12 0 -5 5 -7 11 -4 6 4 10 1 8 -6 -3 -28 1 -40 14 -33
9 5 9 4 0 -6 -14 -16 4 -63 21 -53 6 4 4 -2 -4 -12 -9 -11 -10 -16 -2 -11 7 4
12 1 12 -8 0 -9 5 -16 11 -16 6 0 9 -9 6 -20 -5 -18 3 -25 25 -21 14 2 9 -11
-10 -25 -14 -12 -14 -13 -1 -8 12 4 18 -2 23 -20 3 -14 11 -26 16 -26 6 0 10
-9 10 -20 0 -11 5 -20 10 -20 6 0 10 -5 10 -11 0 -5 -6 -7 -12 -4 -7 4 -4 -1
6 -9 11 -9 14 -16 7 -16 -7 0 -9 -5 -6 -10 4 -6 11 -7 17 -4 7 4 8 2 4 -5 -4
-6 -1 -14 8 -17 8 -3 17 -12 20 -20 3 -9 1 -12 -4 -9 -15 9 -12 -8 6 -33 8
-12 20 -20 25 -17 5 3 6 0 3 -8 -6 -16 34 -50 48 -41 4 3 5 -2 2 -11 -4 -10
-2 -15 7 -13 8 2 13 -3 12 -9 -3 -12 9 -17 30 -14 4 0 7 -7 7 -16 0 -13 3 -14
12 -5 13 13 29 16 27 5 -3 -21 2 -33 13 -27 6 4 8 3 5 -4 -9 -14 3 -43 14 -36
8 5 13 -9 10 -28 0 -5 4 -8 10 -8 5 0 7 -5 3 -12 -5 -8 -2 -9 10 -5 14 6 16 3
11 -14 -5 -15 -4 -19 4 -15 6 4 12 2 12 -3 1 -6 2 -16 3 -21 0 -6 8 -15 16
-20 11 -7 11 -10 2 -10 -8 0 -5 -8 8 -22 11 -12 20 -30 20 -40 0 -16 11 -22
32 -19 4 0 5 -6 1 -15 -3 -8 -1 -14 6 -12 6 2 17 -8 24 -22 7 -14 20 -24 29
-24 9 1 15 -6 14 -20 -2 -25 15 -46 29 -38 6 3 3 -3 -5 -13 -8 -10 -10 -16 -5
-13 6 2 26 -11 45 -30 19 -20 26 -29 15 -21 -19 14 -19 14 0 -12 11 -15 23
-25 27 -22 5 2 8 -3 8 -11 0 -9 5 -16 11 -16 5 0 7 -4 4 -10 -3 -5 0 -10 7
-10 9 0 9 -3 -2 -10 -13 -8 -12 -10 3 -10 15 0 22 -11 18 -32 0 -5 3 -8 9 -8
5 0 10 -5 10 -12 0 -20 31 -47 48 -41 12 5 14 2 8 -12 -4 -11 -4 -16 0 -12 4
4 16 -7 26 -24 11 -17 28 -33 39 -36 10 -3 19 -14 19 -24 0 -11 5 -19 10 -19
6 0 10 -7 10 -16 0 -8 5 -12 10 -9 6 3 10 1 10 -5 0 -6 5 -8 10 -5 6 3 10 -1
10 -10 0 -9 4 -13 10 -10 5 3 10 -1 10 -10 0 -9 4 -14 9 -11 5 3 12 -5 15 -18
5 -19 12 -24 31 -21 19 2 23 -1 15 -11 -8 -9 -6 -14 9 -19 12 -4 18 -12 14
-21 -4 -10 0 -12 11 -8 11 4 16 1 16 -10 0 -9 5 -16 10 -16 6 0 10 -7 10 -15
0 -14 12 -20 34 -16 5 1 6 -5 3 -13 -4 -10 -1 -13 7 -10 8 3 17 0 22 -7 5 -8
3 -10 -6 -4 -9 5 -11 4 -6 -3 4 -7 16 -12 27 -12 11 0 19 -7 19 -17 0 -9 3
-13 6 -10 4 4 15 -2 25 -14 12 -14 18 -16 22 -7 4 10 6 10 6 1 1 -7 8 -13 17
-13 9 0 12 5 8 12 -5 7 -3 8 7 2 8 -5 17 -9 21 -9 3 0 10 -4 15 -9 5 -6 2 -6
-7 -1 -8 5 -12 4 -7 0 10 -12 39 -16 32 -5 -7 11 22 7 32 -5 4 -4 2 -5 -6 0
-10 6 -12 4 -6 -4 4 -8 11 -9 17 -3 11 11 60 3 52 -9 -3 -5 2 -9 12 -9 12 0
15 -6 11 -21 -4 -14 -2 -17 6 -11 13 11 41 -11 29 -22 -3 -4 1 -4 11 0 12 4
17 1 17 -10 0 -9 5 -16 11 -16 5 0 7 -4 4 -10 -3 -5 -1 -10 5 -10 6 0 8 -5 5
-10 -4 -6 -1 -9 7 -8 7 2 12 -2 11 -8 -1 -6 4 -11 12 -11 8 0 12 4 9 9 -3 4 0
8 5 8 6 0 11 -7 11 -16 0 -8 4 -13 9 -10 5 3 12 -1 15 -10 3 -8 11 -12 16 -9
6 4 22 -5 36 -20 25 -27 33 -24 11 5 -6 9 0 3 15 -12 15 -15 32 -28 37 -28 5
0 15 -8 22 -17 13 -17 12 -17 -6 -3 -15 11 -17 11 -8 0 16 -17 57 -25 47 -8
-4 7 -3 8 5 4 6 -4 9 -11 6 -16 -3 -4 3 -14 12 -21 12 -10 14 -10 9 -1 -4 6
-2 12 3 12 6 0 11 -5 11 -12 0 -6 6 -3 14 8 14 19 14 19 13 -1 -1 -14 5 -21
21 -23 14 -2 20 -8 15 -15 -5 -8 -2 -8 9 1 13 10 18 9 29 -5 13 -17 13 -17 -6
-3 -19 14 -19 14 -6 -3 11 -14 16 -15 29 -5 12 10 14 10 8 1 -4 -8 5 -20 26
-33 38 -23 53 -26 42 -7 -5 8 -3 8 9 -2 9 -7 14 -18 10 -25 -4 -6 2 -4 12 4
11 9 16 10 11 3 -7 -12 12 -19 38 -14 5 1 4 -5 -3 -13 -11 -13 -10 -15 8 -11
12 2 19 0 16 -6 -4 -5 -1 -9 5 -9 6 0 9 -4 6 -8 -3 -5 1 -9 9 -9 8 0 12 4 9 9
-3 4 0 8 5 8 6 0 11 -4 11 -10 0 -11 35 -8 46 3 4 4 12 -1 19 -10 9 -13 14
-13 20 -3 6 9 4 11 -5 5 -9 -6 -11 -4 -5 4 5 8 11 9 17 3 15 -15 51 -3 38 13
-7 8 -5 12 5 12 7 0 14 -3 13 -6 -2 -19 3 -31 11 -26 5 3 12 1 15 -4 3 -5 15
-7 26 -4 11 3 20 1 20 -5 0 -5 7 -13 16 -16 10 -4 13 -2 8 6 -5 7 -3 8 5 4 7
-5 10 -15 6 -23 -4 -13 -3 -14 10 -3 12 10 15 9 15 -6 0 -16 2 -17 10 -4 8 12
10 12 10 1 0 -8 3 -11 7 -8 3 4 12 -1 20 -11 8 -9 12 -11 8 -5 -4 9 -1 11 9 7
9 -3 13 -11 9 -18 -4 -6 1 -5 11 3 9 8 16 10 15 5 -5 -26 1 -36 15 -25 10 8
16 9 21 1 3 -6 12 -7 18 -3 7 4 5 -2 -3 -12 -9 -11 -10 -16 -2 -11 7 4 12 2
12 -6 0 -9 3 -9 10 2 9 13 11 13 20 0 6 -10 10 -11 10 -2 0 7 8 4 20 -8 11
-11 25 -20 32 -20 6 0 3 7 -8 15 -16 13 -16 14 -1 9 10 -4 22 -15 28 -25 10
-20 29 -21 41 -4 4 6 8 1 8 -10 0 -17 2 -17 10 -5 8 13 10 13 10 -1 0 -20 34
-31 48 -17 7 7 17 3 29 -9 14 -14 23 -17 29 -9 5 6 8 9 7 7 -6 -10 48 -29 67
-24 11 3 20 0 20 -6 0 -5 7 -8 15 -5 11 5 13 2 9 -10 -5 -12 -2 -15 10 -10 9
3 13 11 9 18 -4 6 10 -2 32 -18 21 -16 35 -25 32 -19 -4 6 0 14 9 17 8 3 12 2
9 -4 -9 -14 19 -12 34 3 11 10 13 9 8 -4 -4 -13 -1 -16 15 -11 11 3 24 -1 29
-9 6 -10 9 -10 9 -1 0 6 5 12 11 12 5 0 8 -4 5 -9 -8 -13 48 -10 56 3 5 7 8 7
8 -3 0 -11 3 -11 17 0 9 8 14 9 10 3 -9 -15 17 -26 40 -17 11 4 14 3 9 -6 -5
-8 -3 -12 5 -10 25 3 40 -1 35 -9 -3 -5 1 -9 9 -9 8 0 12 3 10 7 -2 4 2 7 10
7 8 0 12 -4 10 -8 -3 -3 4 -9 15 -12 10 -3 20 -1 22 4 2 5 14 11 26 14 19 3
23 1 18 -13 -5 -14 -3 -13 9 2 8 11 15 14 15 8 0 -7 7 -12 16 -12 9 0 12 5 8
12 -4 7 -3 8 5 4 6 -4 8 -12 5 -18 -5 -7 -1 -9 9 -5 12 4 17 1 17 -10 0 -14 2
-14 15 3 10 13 14 14 15 5 0 -11 3 -11 17 0 15 12 16 12 8 -1 -8 -13 -7 -13 8
-1 9 7 17 9 17 4 0 -5 6 -10 14 -10 8 0 12 6 9 14 -4 9 0 11 11 7 9 -3 16 -1
16 6 0 6 5 8 10 5 6 -4 7 -11 4 -17 -4 -6 -2 -8 4 -4 6 3 14 2 17 -4 5 -8 11
-7 21 1 8 6 14 7 14 2 0 -5 7 -10 15 -10 8 0 12 4 9 9 -3 4 0 8 5 8 6 0 11 -6
11 -12 0 -10 3 -9 9 1 6 9 10 10 12 2 3 -9 12 -9 32 -2 16 6 26 8 24 3 -3 -4
10 -7 28 -7 18 0 31 3 29 7 -3 4 4 8 16 8 12 0 19 4 16 8 -3 5 1 9 9 9 8 0 12
-4 9 -9 -3 -4 0 -8 5 -8 6 0 11 6 11 13 0 8 4 7 10 -3 8 -12 12 -13 19 -2 6
11 10 10 15 -4 6 -15 8 -15 24 0 13 11 21 13 29 5 8 -8 17 -7 33 4 12 9 29 13
38 10 9 -4 13 -2 9 4 -3 5 0 10 8 10 8 0 12 -4 9 -8 -2 -4 10 -6 28 -4 18 2
33 4 33 5 0 1 10 3 22 4 18 2 20 0 11 -11 -8 -11 -7 -12 6 -7 10 4 16 1 16 -7
0 -12 2 -12 9 0 5 8 16 11 25 8 9 -4 15 -1 13 6 -1 7 6 11 16 11 9 -1 17 5 18
15 0 10 2 11 6 4 2 -7 9 -13 15 -13 6 0 7 8 4 17 -6 14 -3 14 15 -3 12 -10 20
-14 16 -8 -3 6 0 11 8 11 8 0 12 -4 9 -9 -8 -13 20 -9 35 4 11 10 13 10 7 1
-8 -15 10 -18 19 -3 3 6 19 10 35 10 16 0 32 4 35 10 3 5 12 10 18 10 7 0 6
-4 -3 -10 -8 -5 -10 -10 -5 -10 6 1 18 7 28 15 11 7 26 11 35 8 11 -5 13 -3 7
7 -6 10 -3 12 13 8 16 -5 22 -2 22 10 0 13 3 12 16 -4 13 -15 15 -16 10 -2 -3
12 -1 15 9 11 8 -3 13 -8 10 -12 -2 -4 6 -7 17 -6 12 1 24 7 26 13 2 7 8 12
13 12 6 0 7 -5 4 -10 -4 -6 5 -5 19 2 14 6 26 15 26 20 0 4 3 7 8 7 4 -1 24
-1 46 0 33 1 37 3 26 16 -11 14 -10 14 13 6 18 -7 28 -7 33 1 5 7 3 8 -6 3 -9
-6 -11 -4 -6 4 5 7 14 10 21 7 8 -3 16 0 19 7 2 7 5 4 5 -6 1 -17 2 -17 18 -1
12 11 18 13 21 5 3 -8 9 -6 19 6 8 10 12 13 9 8 -2 -6 4 -11 14 -11 15 0 17 3
7 15 -10 12 -9 13 2 7 8 -5 17 -3 22 5 7 11 9 11 9 1 0 -7 5 -10 10 -7 6 4 7
12 3 18 -4 7 0 6 10 -2 13 -11 17 -11 17 -1 0 8 3 10 6 7 4 -4 15 2 24 14 10
11 24 18 31 17 8 -2 13 2 12 9 -2 7 4 10 12 7 8 -4 15 -1 15 6 0 6 5 8 10 5 6
-3 10 1 10 9 0 9 7 16 15 16 8 0 15 5 15 11 0 5 4 8 9 4 5 -3 13 0 16 6 4 5
13 8 21 5 8 -3 14 -1 14 5 0 6 6 7 13 3 8 -6 8 -3 -1 9 -12 14 -11 15 12 11
16 -3 26 0 26 7 0 7 3 9 7 6 3 -4 12 1 20 11 8 9 11 11 8 4 -6 -11 -3 -11 13
-1 12 7 19 16 16 20 -2 4 7 6 21 4 20 -2 23 0 14 12 -9 11 -8 12 5 7 9 -3 16
-1 16 5 0 6 6 10 13 9 6 -2 11 3 9 11 -3 12 -1 12 14 0 12 -9 15 -9 10 -1 -4
7 -2 12 4 12 6 0 8 5 4 13 -6 9 -4 9 8 -1 13 -10 18 -10 24 -1 5 8 3 9 -6 4
-9 -6 -11 -4 -5 4 4 7 16 11 26 8 11 -3 17 -2 15 2 -8 12 11 34 31 36 10 0 25
5 33 10 8 5 26 11 40 13 13 2 29 7 35 11 5 5 22 11 37 15 16 3 27 12 25 19 -1
7 6 11 17 9 12 -2 16 1 10 9 -5 9 -2 10 10 6 9 -4 15 -3 12 1 -3 5 8 16 25 26
16 10 26 22 23 28 -4 7 -2 8 5 4 6 -4 18 0 27 8 9 9 20 13 26 10 6 -4 8 -2 5
3 -4 6 0 13 8 17 8 3 15 13 15 21 0 9 -4 14 -8 11 -4 -2 -8 5 -8 18 0 15 6 22
20 23 20 2 20 1 3 -12 -11 -7 -14 -16 -8 -19 5 -4 13 -1 16 5 4 5 13 8 21 5 8
-3 14 -1 14 4 0 6 7 10 15 10 8 0 15 5 15 11 0 5 4 8 8 5 4 -3 21 11 38 31 28
34 75 68 60 44 -4 -6 -5 -11 -1 -11 3 0 10 12 15 26 6 15 14 22 22 18 6 -4 9
-3 6 2 -3 5 0 15 8 22 8 7 14 10 14 6 0 -3 7 -1 15 6 21 18 19 27 -10 32 -22
5 -23 3 -13 -10 11 -13 10 -15 -4 -9 -12 4 -15 2 -11 -9 3 -9 -1 -14 -12 -14
-9 0 -13 -4 -10 -10 3 -5 -1 -10 -10 -10 -10 0 -13 -5 -9 -12 5 -9 2 -9 -9 1
-13 11 -17 11 -17 1 0 -8 -2 -11 -5 -8 -10 10 27 88 42 88 8 0 11 5 8 10 -4 6
-1 9 7 8 7 -2 12 4 10 12 -2 8 0 12 4 8 4 -5 13 1 21 12 15 22 33 27 33 9 0
-5 -5 -7 -12 -3 -7 5 -8 3 -3 -6 6 -10 11 -9 23 6 14 18 14 18 9 -6 l-6 -25
18 24 c12 16 23 21 32 16 11 -7 10 -4 -1 10 -8 11 -10 16 -3 11 18 -10 57 55
40 66 -8 5 -5 8 8 8 17 0 17 2 5 10 -12 8 -12 10 -1 10 8 0 11 7 8 20 -3 11
-1 20 4 20 5 0 8 4 7 9 -2 4 15 25 37 46 22 21 32 32 22 25 -9 -7 -19 -11 -22
-9 -2 3 9 13 26 24 16 11 29 29 29 40 0 15 3 17 9 7 6 -10 10 -8 14 8 3 12 10
19 16 16 5 -4 12 3 16 14 3 11 12 20 18 20 7 0 6 4 -3 10 -11 7 -11 10 -2 10
7 0 10 5 7 10 -3 6 -1 10 5 10 6 0 9 4 5 9 -3 5 0 13 6 17 7 4 9 3 5 -4 -3 -6
-1 -14 5 -18 8 -4 9 -3 5 4 -4 7 5 24 21 39 15 16 27 30 26 33 -1 3 4 4 10 2
6 -2 4 5 -4 14 -12 15 -12 17 0 9 11 -6 13 -4 8 8 -3 10 -2 18 3 18 6 1 14 2
20 3 5 0 19 9 31 20 18 15 21 16 16 2 -8 -20 7 -21 27 0 9 9 16 11 16 4 0 -6
5 -8 10 -5 6 4 8 10 5 15 -3 4 3 11 12 14 15 6 15 8 3 16 -13 8 -12 10 2 10
11 0 15 5 12 15 -4 9 0 15 7 15 11 0 11 2 0 9 -12 7 -12 13 -3 24 7 7 9 17 6
20 -4 4 3 5 14 2 16 -3 19 0 15 12 -4 10 -2 14 4 10 6 -4 10 3 9 16 -1 12 -8
21 -15 19 -7 -1 -10 2 -6 8 3 6 10 8 15 5 10 -6 20 18 20 48 0 18 2 19 10 7 8
-12 10 -10 10 10 0 18 3 21 9 11 6 -10 13 -10 28 -2 11 5 23 8 26 5 3 -3 3 3
0 15 -3 13 -1 21 7 21 10 0 10 3 1 14 -10 12 -9 14 7 9 12 -3 22 2 26 13 6 15
4 15 -10 3 -16 -13 -16 -12 -4 8 8 12 18 19 23 16 4 -3 7 3 5 13 -2 11 2 18
10 16 16 -3 16 10 0 27 -11 10 -9 11 7 5 11 -4 17 -3 12 1 -4 5 0 19 9 33 12
18 12 23 3 17 -8 -3 -7 -1 2 7 18 15 34 56 30 77 -1 7 2 10 8 6 10 -5 16 22
12 48 0 4 5 7 11 7 9 0 8 4 -2 10 -11 7 -11 10 -2 10 8 0 10 5 6 12 -5 8 -2 9
9 5 9 -3 19 -2 22 4 4 5 11 7 16 4 5 -3 6 1 3 9 -4 10 -1 16 7 16 11 0 11 3
-1 10 -11 7 -11 10 -2 10 7 0 10 5 7 10 -3 6 -1 10 5 10 6 0 8 5 5 10 -4 6 -1
18 7 27 11 14 11 16 0 9 -11 -6 -13 -1 -11 20 2 16 0 34 -4 41 -4 7 0 16 10
22 10 6 12 11 6 11 -9 0 -10 7 -3 26 6 14 8 30 4 35 -3 5 0 9 6 9 7 0 9 7 6
16 -5 12 -2 15 10 10 15 -6 15 -4 3 11 -8 9 -9 14 -4 11 6 -3 16 0 23 8 7 8 9
14 5 14 -4 0 -1 5 7 10 11 7 11 10 2 10 -7 0 -10 5 -7 10 4 6 12 7 18 4 7 -4
9 -4 5 1 -4 4 -2 15 5 23 10 13 9 14 -1 8 -12 -7 -12 -4 -2 14 6 12 9 28 6 36
-3 8 0 13 7 11 7 -1 11 6 9 16 -2 9 3 17 10 17 9 0 9 3 -2 10 -12 8 -12 10 -1
10 11 0 11 3 1 15 -11 13 -10 14 5 9 13 -5 16 -4 11 4 -7 11 6 17 27 13 5 -1
6 3 2 9 -9 14 4 50 17 47 7 -1 12 20 14 56 2 42 0 56 -9 52 -7 -4 -5 -1 3 7 9
7 14 25 12 42 -3 20 0 26 9 21 8 -5 10 -4 5 4 -4 6 -12 9 -17 6 -13 -9 -11 9
4 24 6 7 8 11 2 10 -19 -4 -45 13 -45 30 0 13 2 13 9 2 5 -8 11 -9 15 -3 3 5
-1 13 -10 16 -13 5 -14 9 -4 21 7 8 16 12 21 9 5 -3 6 2 2 11 -4 13 -8 14 -14
4 -4 -8 -11 -11 -14 -7 -3 3 6 15 21 27 26 21 43 71 23 71 -5 0 -9 5 -9 11 0
5 4 8 8 5 5 -3 9 1 9 9 0 8 -3 15 -6 15 -4 0 -8 12 -9 26 -1 15 -6 32 -11 38
-6 7 -6 18 -1 26 5 8 5 21 -1 32 -7 13 -6 18 3 18 9 0 9 3 2 8 -13 9 -27 45
-15 38 11 -7 22 19 13 29 -13 12 -11 86 1 79 9 -5 9 -4 0 6 -13 14 -6 43 9 34
6 -4 5 3 -1 15 -8 14 -8 21 -1 21 7 0 8 6 0 19 -7 14 -7 20 1 23 8 3 6 10 -5
21 -16 15 -16 17 -1 17 11 0 14 5 8 18 -5 9 -7 31 -6 47 2 17 4 35 4 40 1 15
-9 53 -17 68 -5 7 0 6 11 -3 17 -14 18 -14 8 5 -6 11 -8 26 -5 34 3 10 0 11
-9 5 -11 -6 -10 -3 1 11 8 10 10 16 4 12 -8 -5 -12 6 -11 33 1 22 6 40 11 40
6 0 3 5 -7 11 -13 8 -15 14 -7 29 7 13 6 19 -5 24 -8 3 -12 12 -9 21 3 8 11
12 18 8 6 -4 5 1 -3 10 -10 13 -10 17 -1 17 9 0 9 4 -1 17 -12 15 -12 16 6 10
20 -7 20 -7 1 8 -11 8 -16 15 -10 15 5 0 9 29 9 65 0 36 -4 65 -9 65 -5 0 -3
7 4 16 11 12 11 15 -1 12 -8 -2 -13 3 -11 10 4 22 4 27 3 45 0 10 -5 16 -10
13 -5 -4 -7 3 -4 14 3 12 -1 22 -11 26 -9 3 -16 10 -16 16 0 5 4 6 10 3 6 -3
7 1 4 9 -3 9 -10 16 -15 16 -5 0 -9 10 -9 23 0 13 -6 29 -12 36 -11 11 -10 12
2 6 13 -7 13 -6 0 11 -16 20 -19 42 -7 61 4 7 0 16 -10 22 -10 5 -17 12 -15
15 7 18 1 36 -10 30 -9 -5 -9 -2 1 9 12 15 11 17 -10 18 -22 0 -23 1 -4 9 l20
9 -20 0 c-15 1 -16 4 -7 10 10 6 7 12 -13 25 -14 9 -23 22 -19 28 4 7 3 8 -4
4 -7 -4 -12 -2 -12 4 0 6 -4 8 -10 5 -9 -6 -14 7 -7 21 1 3 -6 10 -16 16 -14
7 -16 13 -6 24 7 9 8 14 1 14 -6 0 -9 9 -7 20 2 11 0 20 -5 20 -4 0 -7 8 -6
18 2 9 -4 23 -13 30 -14 12 -14 13 4 7 15 -5 17 -3 8 6 -6 6 -9 18 -6 27 4 9
2 13 -4 9 -5 -3 -9 3 -8 16 3 30 -5 48 -18 40 -6 -3 -7 -1 -3 6 4 6 2 19 -6
28 -11 15 -11 16 7 9 18 -6 17 -5 -3 17 -16 17 -20 27 -12 32 8 5 6 12 -7 22
-10 8 -12 11 -4 7 16 -8 9 8 -18 40 -13 16 -13 18 -1 11 12 -7 11 -3 -2 18
-10 14 -18 33 -18 42 0 10 -5 13 -12 9 -10 -5 -10 -4 -2 5 9 9 9 19 0 37 -6
13 -14 24 -18 24 -4 0 -5 6 -2 14 3 7 -1 20 -9 28 -8 8 -17 23 -19 34 -2 10
-9 18 -16 17 -6 -2 -9 4 -5 13 3 8 -3 22 -13 30 -11 9 -13 13 -6 9 17 -9 15 6
-5 34 -9 14 -12 22 -6 18 5 -3 10 0 10 8 0 8 -3 13 -5 10 -11 -10 -29 40 -19
52 6 9 2 16 -14 22 -22 9 -22 10 -4 11 11 1 15 4 8 6 -7 3 -9 12 -6 21 5 12 3
14 -7 8 -10 -6 -12 -4 -7 8 3 9 0 18 -9 21 -9 3 -13 10 -9 15 3 5 0 13 -6 16
-5 4 -8 14 -5 22 3 8 2 12 -2 10 -4 -3 -12 1 -19 8 -10 11 -10 15 0 19 7 4 3
5 -9 2 -17 -3 -20 1 -18 20 1 12 -4 25 -12 28 -10 4 -13 2 -8 -7 5 -8 2 -8 -9
2 -9 7 -15 17 -12 21 3 5 1 11 -5 15 -6 4 -7 12 -3 18 4 7 -2 5 -12 -3 -17
-14 -18 -14 -6 8 6 12 8 22 4 21 -4 -1 -15 -1 -23 0 -13 1 -13 2 0 11 12 8 12
10 -3 16 -9 3 -17 14 -17 23 0 14 -2 14 -10 1 -8 -12 -10 -11 -10 8 0 14 -6
22 -17 22 -15 0 -16 2 -3 10 13 8 12 10 -2 10 -10 0 -18 7 -18 16 0 8 -3 13
-7 11 -5 -3 -13 1 -20 8 -10 11 -10 15 0 18 7 3 3 6 -7 6 -11 1 -17 4 -13 7 8
8 -16 33 -25 27 -5 -2 -8 3 -8 11 0 9 -4 16 -10 16 -5 0 -10 7 -10 16 0 8 -4
12 -10 9 -5 -3 -10 0 -10 9 0 8 -6 17 -12 19 -10 4 -10 6 0 6 6 1 12 6 12 13
0 6 -3 9 -6 5 -12 -12 -33 17 -22 31 7 8 7 12 -1 12 -8 0 -10 8 -6 20 3 11 2
20 -3 20 -6 0 -8 9 -5 20 4 14 0 20 -11 20 -10 0 -14 5 -11 10 9 15 -47 90
-68 90 -10 0 -16 4 -13 8 8 13 -40 36 -58 29 -8 -3 -22 1 -31 9 -8 9 -15 11
-15 6 0 -16 -31 -7 -45 11 -7 9 -16 13 -20 9 -5 -4 -5 1 -2 11 4 11 3 16 -4
12 -6 -4 -13 2 -16 14 -3 11 -9 19 -13 16 -4 -3 -10 2 -14 10 -3 8 -12 12 -21
9 -8 -3 -15 -1 -15 5 0 6 -7 11 -15 11 -9 0 -12 6 -8 16 5 13 2 15 -18 9 -20
-7 -22 -5 -12 6 8 11 7 17 -5 29 -14 13 -15 12 -9 -5 7 -20 7 -20 -8 -1 -8 11
-15 16 -15 11 0 -4 -8 2 -19 13 -10 12 -21 19 -25 15 -3 -3 -6 0 -6 8 0 8 -9
20 -21 27 -14 9 -19 20 -16 33 5 17 3 18 -11 7 -12 -10 -14 -10 -8 0 4 7 1 14
-8 18 -9 3 -12 12 -9 21 5 12 3 14 -7 8 -10 -6 -12 -4 -7 8 4 12 1 15 -14 12
-16 -3 -19 0 -15 12 5 13 4 14 -9 3 -8 -7 -15 -8 -15 -3 0 5 -6 10 -12 11 -33
3 -53 11 -51 21 2 7 -5 7 -23 1 -15 -6 -23 -6 -19 -1 3 5 -8 18 -24 27 -17 10
-28 21 -25 26 3 4 -2 11 -10 14 -9 3 -16 10 -16 16 0 5 5 6 10 3 6 -3 10 -2
10 3 0 6 -7 13 -16 16 -8 3 -14 14 -13 23 3 26 -22 73 -38 73 -8 0 -11 4 -8
10 3 6 -1 7 -9 4 -15 -6 -21 6 -17 29 1 5 -3 6 -8 3 -5 -4 -16 1 -24 9 -14 13
-16 13 -20 -3 -4 -14 -5 -14 -6 3 -1 17 -3 18 -11 5 -8 -13 -10 -12 -10 3 0 9
-5 17 -11 17 -5 0 -8 -4 -5 -8 2 -4 -4 -8 -14 -8 -10 0 -18 3 -18 6 1 16 -3
30 -9 29 -23 -4 -43 2 -38 11 3 6 1 10 -5 10 -7 0 -10 6 -7 14 4 11 0 13 -15
11 -11 -3 -18 -2 -15 2 3 3 -1 12 -9 20 -8 8 -11 20 -7 26 4 7 -1 6 -10 -2
-17 -13 -23 -6 -18 22 0 4 -6 7 -15 7 -8 0 -22 6 -30 14 -7 8 -22 13 -31 12
-10 -2 -24 3 -32 11 -7 8 -20 12 -27 9 -8 -3 -19 4 -25 16 -9 17 -13 18 -20 7
-7 -11 -9 -11 -9 -1 0 7 -8 12 -17 10 -10 -2 -17 2 -16 9 2 9 -4 10 -22 3 -19
-7 -23 -6 -18 6 4 10 1 12 -13 7 -12 -4 -15 -3 -10 5 4 7 1 12 -9 12 -10 0
-13 -5 -9 -12 6 -9 3 -9 -9 1 -9 7 -23 11 -31 8 -11 -4 -14 0 -11 16 4 21 4
21 -10 3 -8 -11 -15 -14 -15 -8 0 7 -5 12 -11 12 -5 0 -8 -4 -5 -8 3 -5 -1 -9
-9 -9 -8 0 -12 4 -9 9 3 4 -6 8 -19 8 -14 0 -28 7 -31 16 -3 8 -10 12 -16 9
-5 -3 -10 -1 -10 4 0 6 -7 11 -16 11 -9 0 -12 5 -8 12 5 7 2 9 -9 5 -8 -3 -18
0 -21 8 -3 8 -15 19 -28 26 -20 10 -22 10 -13 -2 6 -8 2 -7 -7 4 -10 10 -23
15 -29 11 -8 -4 -9 -3 -5 4 5 8 -2 12 -18 12 -14 0 -26 5 -26 10 0 6 -7 10
-15 10 -8 0 -15 6 -15 14 0 8 -5 18 -12 22 -7 4 -8 3 -4 -4 4 -7 3 -12 -2 -12
-5 0 -14 10 -20 23 -6 12 -11 16 -11 9 -1 -18 -31 11 -31 29 0 7 -3 10 -6 6
-9 -8 -33 16 -26 27 3 5 0 6 -7 2 -6 -4 -14 0 -17 9 -5 13 -9 13 -22 3 -9 -7
-13 -8 -9 -2 6 10 -22 37 -39 37 -5 0 -15 7 -22 16 -12 14 -13 14 -8 -1 4 -15
2 -16 -14 -6 -10 7 -16 17 -12 23 3 5 -3 3 -13 -5 -17 -14 -18 -13 -11 5 5 15
4 17 -5 8 -6 -6 -18 -9 -27 -6 -11 5 -13 3 -7 -8 8 -12 6 -12 -9 0 -15 13 -19
13 -27 0 -7 -11 -9 -10 -9 6 0 17 -2 17 -10 5 -5 -8 -10 -10 -10 -3 0 6 -11
10 -25 9 -13 -2 -22 1 -19 5 6 10 -32 7 -41 -3 -8 -8 -45 2 -45 13 0 5 -6 6
-14 3 -8 -3 -17 0 -22 7 -5 8 -3 10 6 4 9 -6 11 -4 5 5 -6 10 -11 9 -22 -5 -7
-11 -13 -13 -13 -7 0 14 -21 12 -32 -3 -5 -6 -8 -5 -8 3 0 6 -5 12 -11 12 -5
0 -7 -6 -3 -12 6 -10 4 -10 -7 0 -15 14 -33 17 -25 4 3 -5 -1 -9 -9 -9 -8 0
-15 5 -15 10 0 5 -7 4 -15 -3 -12 -10 -15 -10 -15 0 0 9 -3 10 -13 1 -10 -8
-17 -7 -25 1 -9 9 -12 9 -12 -2 0 -10 -4 -8 -14 5 -13 18 -13 18 -24 -1 -8
-14 -12 -15 -12 -4 0 13 -1 13 -10 0 -7 -11 -10 -11 -10 -2 0 8 -5 10 -12 5
-21 -12 -42 -9 -50 7 -5 11 -7 10 -7 -5 -1 -15 -3 -17 -10 -6 -6 10 -13 11
-29 2 -14 -7 -23 -8 -27 -1 -4 6 -12 7 -18 3 -17 -11 -39 -13 -51 -5 -21 13
-48 13 -40 0 6 -10 5 -10 -7 -1 -12 10 -18 10 -29 0 -10 -9 -11 -9 -6 1 4 6 3
12 -3 12 -5 0 -12 -6 -14 -12 -4 -10 -6 -9 -6 1 -1 11 -4 11 -18 0 -15 -12
-16 -12 -10 6 7 20 7 20 -8 1 -8 -11 -15 -15 -15 -9 0 16 -28 24 -36 11z
m-460 -86 c3 -5 -1 -9 -9 -9 -8 0 -12 4 -9 9 3 4 7 8 9 8 2 0 6 -4 9 -8z
m2711 -702 c2 -12 3 -21 1 -19 -3 2 -5 9 -6 14 -1 6 -7 19 -12 30 -8 15 -8 17
1 9 6 -6 13 -21 16 -34z m-4408 -95 c0 -8 -4 -12 -9 -9 -5 3 -6 10 -3 15 9 13
12 11 12 -6z m6149 -4001 c1 -9 0 -13 -4 -10 -3 4 -7 14 -8 22 -1 9 0 13 4 10
3 -4 7 -14 8 -22z m-215 -797 c-10 -9 -11 -8 -5 6 3 10 9 15 12 12 3 -3 0 -11
-7 -18z m-6431 -1047 c0 -5 -2 -10 -4 -10 -3 0 -8 5 -11 10 -3 6 -1 10 4 10 6
0 11 -4 11 -10z m1910 -1064 c0 -3 -4 -8 -10 -11 -5 -3 -10 -1 -10 4 0 6 5 11
10 11 6 0 10 -2 10 -4z"/>
<path d="M1060 6139 c0 -5 5 -7 10 -4 6 3 10 8 10 11 0 2 -4 4 -10 4 -5 0 -10
-5 -10 -11z"/>
<path d="M8125 2860 c-3 -6 1 -7 9 -4 18 7 21 14 7 14 -6 0 -13 -4 -16 -10z"/>
<path d="M7439 1993 c-12 -16 -12 -17 2 -6 9 7 20 9 24 5 5 -4 5 -1 1 6 -9 16
-11 15 -27 -5z"/>
<path d="M7305 1900 c-3 -5 -1 -10 4 -10 6 0 11 5 11 10 0 6 -2 10 -4 10 -3 0
-8 -4 -11 -10z"/>
</g>
</svg>
